<?xml version="1.0" encoding="UTF-8" standalone="no"?><svg xmlns="http://www.w3.org/2000/svg" xmlns:xlink="http://www.w3.org/1999/xlink" style="isolation:isolate" viewBox="890.324 480.457 86.353 85.087" width="86.353pt" height="85.087pt"><defs><clipPath id="_clipPath_6PqOJmkThRSZ4v9ps4HPYs6DPNONs1zG"><rect x="890.324" y="480.457" width="86.353" height="85.087"/></clipPath></defs><g clip-path="url(#_clipPath_6PqOJmkThRSZ4v9ps4HPYs6DPNONs1zG)"><g><path d=" M 899.42 505.625 C 902.11 497.021 906.724 486.112 913.987 484.008 C 921.25 481.903 927.551 486.282 937.83 489.496 C 948.109 492.71 966.013 489.518 970.991 497.269 C 975.969 505.021 972.998 517.992 970.308 526.596 C 964.928 543.805 943.869 552.557 923.31 546.129 C 902.751 539.701 894.04 522.834 899.42 505.625 Z " fill="rgb(255,255,255)" vector-effect="non-scaling-stroke" stroke-width="2" stroke="rgb(0,0,0)" stroke-linejoin="miter" stroke-linecap="square" stroke-miterlimit="3"/><path d=" M 900.122 526.965 Q 921.627 535.059 925.761 536.351 Q 929.895 537.644 955.045 544.001 L 947.449 562.543 Q 924.103 560.436 918.429 558.662 Q 912.755 556.888 893.324 549.793 L 900.122 526.965 Z " fill="rgb(255,255,255)" vector-effect="non-scaling-stroke" stroke-width="2" stroke="rgb(0,0,0)" stroke-linejoin="miter" stroke-linecap="square" stroke-miterlimit="3"/><path d=" M 907.954 529.664 Q 906.277 521.954 906.68 517.09" fill="none" vector-effect="non-scaling-stroke" stroke-width="2" stroke="rgb(0,0,0)" stroke-linejoin="miter" stroke-linecap="square" stroke-miterlimit="3"/><path d=" M 917.763 533.187 Q 918.268 523.836 919.4 518.133" fill="none" vector-effect="non-scaling-stroke" stroke-width="2" stroke="rgb(0,0,0)" stroke-linejoin="miter" stroke-linecap="square" stroke-miterlimit="3"/><path d=" M 930.061 536.969 Q 932.419 527.24 934.23 521.075" fill="none" vector-effect="non-scaling-stroke" stroke-width="2" stroke="rgb(0,0,0)" stroke-linejoin="miter" stroke-linecap="square" stroke-miterlimit="3"/><path d=" M 940.679 540.147 Q 945.89 533.46 948.245 528.328" fill="none" vector-effect="non-scaling-stroke" stroke-width="2" stroke="rgb(0,0,0)" stroke-linejoin="miter" stroke-linecap="square" stroke-miterlimit="3"/><path d=" M 950.419 542.612 Q 954.636 538.784 956.54 534.986" fill="none" vector-effect="non-scaling-stroke" stroke-width="2" stroke="rgb(0,0,0)" stroke-linejoin="miter" stroke-linecap="square" stroke-miterlimit="3"/></g></g></svg>